<svg width="40" height="26" viewBox="0 0 40 26" fill="none" xmlns="http://www.w3.org/2000/svg">
<g opacity="0.5">
<path fill-rule="evenodd" clip-rule="evenodd" d="M40 12C40 5.37258 34.6274 0 28 0H12C5.37258 0 0 5.37258 0 12V12C0 18.6274 5.37258 24 12 24H28C34.6274 24 40 18.6274 40 12V12Z" fill="#E4E7EB"/>
<g filter="url(#filter0_d)">
<path fill-rule="evenodd" clip-rule="evenodd" d="M13.8525 22C8.32969 22 3.85254 17.5228 3.85254 12C3.85254 6.47715 8.32969 2 13.8525 2C19.3754 2 23.8525 6.47715 23.8525 12C23.8525 17.5228 19.3754 22 13.8525 22Z" fill="white"/>
<path d="M4.10254 12C4.10254 17.3848 8.46776 21.75 13.8525 21.75C19.2373 21.75 23.6025 17.3848 23.6025 12C23.6025 6.61522 19.2373 2.25 13.8525 2.25C8.46776 2.25 4.10254 6.61522 4.10254 12Z" stroke="#F5F5F5" stroke-width="0.5"/>
</g>
</g>
<defs>
<filter id="filter0_d" x="1.85254" y="2" width="24" height="24" filterUnits="userSpaceOnUse" color-interpolation-filters="sRGB">
<feFlood flood-opacity="0" result="BackgroundImageFix"/>
<feColorMatrix in="SourceAlpha" type="matrix" values="0 0 0 0 0 0 0 0 0 0 0 0 0 0 0 0 0 0 127 0"/>
<feOffset dy="2"/>
<feGaussianBlur stdDeviation="1"/>
<feColorMatrix type="matrix" values="0 0 0 0 0 0 0 0 0 0 0 0 0 0 0 0 0 0 0.5 0"/>
<feBlend mode="normal" in2="BackgroundImageFix" result="effect1_dropShadow"/>
<feBlend mode="normal" in="SourceGraphic" in2="effect1_dropShadow" result="shape"/>
</filter>
</defs>
</svg>
